<?xml version="1.0" standalone="no"?>
<!DOCTYPE svg PUBLIC "-//W3C//DTD SVG 20010904//EN"
 "http://www.w3.org/TR/2001/REC-SVG-20010904/DTD/svg10.dtd">
<svg version="1.0" xmlns="http://www.w3.org/2000/svg"
 width="700.000000pt" height="700.000000pt" viewBox="0 0 700.000000 700.000000"
 preserveAspectRatio="xMidYMid meet">
<metadata>
Created by potrace 1.14, written by Peter Selinger 2001-2017
</metadata>
<g transform="translate(0.000000,700.000000) scale(0.100000,-0.100000)"
fill="#000000" stroke="none">
<path d="M570 6515 c0 -1 14 -30 31 -66 18 -35 55 -113 84 -174 29 -60 85
-177 125 -260 40 -82 91 -190 115 -240 23 -49 75 -157 115 -240 140 -289 203
-421 240 -500 21 -44 75 -156 120 -250 45 -93 102 -213 127 -265 25 -52 75
-156 110 -230 36 -74 87 -180 113 -235 26 -55 85 -176 130 -270 45 -93 90
-189 101 -212 l18 -43 -48 -97 c-27 -54 -58 -118 -69 -143 -11 -25 -68 -143
-126 -264 -58 -120 -106 -219 -106 -221 0 -2 -54 -114 -120 -250 -66 -136
-120 -248 -120 -250 0 -1 -47 -99 -104 -216 -57 -118 -119 -248 -138 -289 -36
-75 -119 -249 -230 -480 -34 -69 -84 -174 -113 -235 -29 -60 -83 -173 -120
-250 -54 -113 -106 -221 -133 -278 -2 -4 208 -7 468 -7 l471 1 58 122 c101
211 228 476 371 772 40 83 92 191 115 240 24 50 73 153 110 230 73 152 145
302 229 478 57 119 119 248 236 492 40 83 94 195 120 250 26 55 76 159 110
230 34 72 66 140 71 152 7 18 -12 65 -96 239 -58 119 -105 217 -105 218 0 2
-44 95 -99 207 -102 210 -281 586 -356 744 -24 50 -88 184 -144 299 -56 114
-101 210 -101 211 0 1 -43 92 -96 201 -53 110 -115 240 -139 289 -23 50 -74
155 -112 235 -39 80 -93 192 -120 250 l-51 105 -471 0 c-259 1 -471 0 -471 0z"/>
<path d="M2700 999 l0 -439 28 -1 c32 0 3877 0 3907 1 20 0 20 7 20 439 l0
439 -1977 0 -1978 0 0 -439z"/>
</g>
</svg>
